# xmcd
#
# Track frame offsets: 
#        150
#        17292
#        34415
#        51300
#        71077
#        86615
#        109110
#        125912
#        141675
#        160677
#        189545
#
# Disc length: 4440 seconds
#
# Revision: 2
# Processed by: cddbd v1.5.1PL2 Copyright (c) Steve Scherf et al.
# Submitted via: ExactAudioCopy v0.95b3
#
DISCID=a011560b
DTITLE=Haven - All For A Reason
DYEAR=2004
DGENRE=Rock
TTITLE0=Change Direction
TTITLE1=Have No Fear
TTITLE2=All for A Reason
TTITLE3=The First Time
TTITLE4=Wouldn't Change A Thing
TTITLE5=Something Moved Me
TTITLE6=What Love Is
TTITLE7=Together's Better
TTITLE8=Don't Say A Word
TTITLE9=Getaway
TTITLE10=DataTrack
EXTD=YEAR: 2004
EXTT0=
EXTT1=
EXTT2=
EXTT3=
EXTT4=
EXTT5=
EXTT6=
EXTT7=
EXTT8=
EXTT9=
EXTT10=
PLAYORDER=
